<?xml version="1.0" encoding="utf-8" standalone="no"?>
<!DOCTYPE svg PUBLIC "-//W3C//DTD SVG 1.1//EN"
  "http://www.w3.org/Graphics/SVG/1.1/DTD/svg11.dtd">
<svg xmlns:xlink="http://www.w3.org/1999/xlink" width="720pt" height="432pt" viewBox="0 0 720 432" xmlns="http://www.w3.org/2000/svg" version="1.1">
 <metadata>
  <rdf:RDF xmlns:dc="http://purl.org/dc/elements/1.1/" xmlns:cc="http://creativecommons.org/ns#" xmlns:rdf="http://www.w3.org/1999/02/22-rdf-syntax-ns#">
   <cc:Work>
    <dc:type rdf:resource="http://purl.org/dc/dcmitype/StillImage"/>
    <dc:date>2026-04-27T09:02:36.891847</dc:date>
    <dc:format>image/svg+xml</dc:format>
    <dc:creator>
     <cc:Agent>
      <dc:title>Matplotlib v3.10.7, https://matplotlib.org/</dc:title>
     </cc:Agent>
    </dc:creator>
   </cc:Work>
  </rdf:RDF>
 </metadata>
 <defs>
  <style type="text/css">*{stroke-linejoin: round; stroke-linecap: butt}</style>
 </defs>
 <g id="figure_1">
  <g id="patch_1">
   <path d="M 0 432 
L 720 432 
L 720 0 
L 0 0 
z
" style="fill: #ffffff"/>
  </g>
  <g id="axes_1">
   <g id="patch_2">
    <path d="M 83.09 369.16 
L 709.2 369.16 
L 709.2 10.8 
L 83.09 10.8 
z
" style="fill: #ffffff"/>
   </g>
   <g id="patch_3">
    <path d="M 111.549545 369.16 
L 122.809743 369.16 
L 122.809743 27.864762 
L 111.549545 27.864762 
z
" clip-path="url(#pe17aa71fbd)" style="fill: #ff0000; opacity: 0.7"/>
   </g>
   <g id="patch_4">
    <path d="M 174.964206 369.16 
L 186.224404 369.16 
L 186.224404 27.864762 
L 174.964206 27.864762 
z
" clip-path="url(#pe17aa71fbd)" style="fill: #ff0000; opacity: 0.7"/>
   </g>
   <g id="patch_5">
    <path d="M 219.185259 369.16 
L 230.445457 369.16 
L 230.445457 27.864762 
L 219.185259 27.864762 
z
" clip-path="url(#pe17aa71fbd)" style="fill: #ff0000; opacity: 0.7"/>
   </g>
   <g id="patch_6">
    <path d="M 262.369957 369.16 
L 273.630155 369.16 
L 273.630155 27.864762 
L 262.369957 27.864762 
z
" clip-path="url(#pe17aa71fbd)" style="fill: #ff0000; opacity: 0.7"/>
   </g>
   <g id="patch_7">
    <path d="M 300.785331 369.16 
L 312.045529 369.16 
L 312.045529 27.864762 
L 300.785331 27.864762 
z
" clip-path="url(#pe17aa71fbd)" style="fill: #ff0000; opacity: 0.7"/>
   </g>
   <g id="patch_8">
    <path d="M 375.491869 369.16 
L 386.752066 369.16 
L 386.752066 279.345464 
L 375.491869 279.345464 
z
" clip-path="url(#pe17aa71fbd)" style="fill: #008000; opacity: 0.7"/>
   </g>
   <g id="patch_9">
    <path d="M 454.041046 369.16 
L 465.301244 369.16 
L 465.301244 279.345464 
L 454.041046 279.345464 
z
" clip-path="url(#pe17aa71fbd)" style="fill: #008000; opacity: 0.7"/>
   </g>
   <g id="patch_10">
    <path d="M 459.045556 369.16 
L 470.305754 369.16 
L 470.305754 279.345464 
L 459.045556 279.345464 
z
" clip-path="url(#pe17aa71fbd)" style="fill: #008000; opacity: 0.7"/>
   </g>
   <g id="patch_11">
    <path d="M 469.07551 369.16 
L 480.335708 369.16 
L 480.335708 279.345464 
L 469.07551 279.345464 
z
" clip-path="url(#pe17aa71fbd)" style="fill: #008000; opacity: 0.7"/>
   </g>
   <g id="patch_12">
    <path d="M 492.363531 369.16 
L 503.623729 369.16 
L 503.623729 279.345464 
L 492.363531 279.345464 
z
" clip-path="url(#pe17aa71fbd)" style="fill: #008000; opacity: 0.7"/>
   </g>
   <g id="patch_13">
    <path d="M 516.007733 369.16 
L 527.267931 369.16 
L 527.267931 279.345464 
L 516.007733 279.345464 
z
" clip-path="url(#pe17aa71fbd)" style="fill: #008000; opacity: 0.7"/>
   </g>
   <g id="patch_14">
    <path d="M 525.581096 369.16 
L 536.841294 369.16 
L 536.841294 279.345464 
L 525.581096 279.345464 
z
" clip-path="url(#pe17aa71fbd)" style="fill: #008000; opacity: 0.7"/>
   </g>
   <g id="patch_15">
    <path d="M 548.17305 369.16 
L 559.433248 369.16 
L 559.433248 279.345464 
L 548.17305 279.345464 
z
" clip-path="url(#pe17aa71fbd)" style="fill: #008000; opacity: 0.7"/>
   </g>
   <g id="patch_16">
    <path d="M 549.465932 369.16 
L 560.72613 369.16 
L 560.72613 279.345464 
L 549.465932 279.345464 
z
" clip-path="url(#pe17aa71fbd)" style="fill: #008000; opacity: 0.7"/>
   </g>
   <g id="patch_17">
    <path d="M 551.306744 369.16 
L 562.566942 369.16 
L 562.566942 279.345464 
L 551.306744 279.345464 
z
" clip-path="url(#pe17aa71fbd)" style="fill: #008000; opacity: 0.7"/>
   </g>
   <g id="patch_18">
    <path d="M 561.561568 369.16 
L 572.821765 369.16 
L 572.821765 279.345464 
L 561.561568 279.345464 
z
" clip-path="url(#pe17aa71fbd)" style="fill: #008000; opacity: 0.7"/>
   </g>
   <g id="patch_19">
    <path d="M 602.526365 369.16 
L 613.786563 369.16 
L 613.786563 279.345464 
L 602.526365 279.345464 
z
" clip-path="url(#pe17aa71fbd)" style="fill: #008000; opacity: 0.7"/>
   </g>
   <g id="patch_20">
    <path d="M 626.655168 369.16 
L 637.915366 369.16 
L 637.915366 279.345464 
L 626.655168 279.345464 
z
" clip-path="url(#pe17aa71fbd)" style="fill: #008000; opacity: 0.7"/>
   </g>
   <g id="patch_21">
    <path d="M 628.374667 369.16 
L 639.634865 369.16 
L 639.634865 279.345464 
L 628.374667 279.345464 
z
" clip-path="url(#pe17aa71fbd)" style="fill: #008000; opacity: 0.7"/>
   </g>
   <g id="patch_22">
    <path d="M 632.345332 369.16 
L 643.60553 369.16 
L 643.60553 279.345464 
L 632.345332 279.345464 
z
" clip-path="url(#pe17aa71fbd)" style="fill: #008000; opacity: 0.7"/>
   </g>
   <g id="patch_23">
    <path d="M 635.514468 369.16 
L 646.774665 369.16 
L 646.774665 279.345464 
L 635.514468 279.345464 
z
" clip-path="url(#pe17aa71fbd)" style="fill: #008000; opacity: 0.7"/>
   </g>
   <g id="patch_24">
    <path d="M 653.189953 369.16 
L 664.45015 369.16 
L 664.45015 279.345464 
L 653.189953 279.345464 
z
" clip-path="url(#pe17aa71fbd)" style="fill: #008000; opacity: 0.7"/>
   </g>
   <g id="patch_25">
    <path d="M 655.253695 369.16 
L 666.513893 369.16 
L 666.513893 279.345464 
L 655.253695 279.345464 
z
" clip-path="url(#pe17aa71fbd)" style="fill: #008000; opacity: 0.7"/>
   </g>
   <g id="patch_26">
    <path d="M 669.480257 369.16 
L 680.740455 369.16 
L 680.740455 279.345464 
L 669.480257 279.345464 
z
" clip-path="url(#pe17aa71fbd)" style="fill: #008000; opacity: 0.7"/>
   </g>
   <g id="matplotlib.axis_1">
    <g id="xtick_1">
     <g id="line2d_1">
      <defs>
       <path id="m26e465e268" d="M 0 0 
L 0 3.5 
" style="stroke: #000000; stroke-width: 0.8"/>
      </defs>
      <g>
       <use xlink:href="#m26e465e268" x="117.179644" y="369.16" style="stroke: #000000; stroke-width: 0.8"/>
      </g>
     </g>
     <g id="text_1">
      <!-- 0 -->
      <g transform="translate(111.618707 390.475625) scale(0.2 -0.2)">
       <defs>
        <path id="ArialMT-30" d="M 266 2259 
Q 266 3072 433 3567 
Q 600 4063 929 4331 
Q 1259 4600 1759 4600 
Q 2128 4600 2406 4451 
Q 2684 4303 2865 4023 
Q 3047 3744 3150 3342 
Q 3253 2941 3253 2259 
Q 3253 1453 3087 958 
Q 2922 463 2592 192 
Q 2263 -78 1759 -78 
Q 1097 -78 719 397 
Q 266 969 266 2259 
z
M 844 2259 
Q 844 1131 1108 757 
Q 1372 384 1759 384 
Q 2147 384 2411 759 
Q 2675 1134 2675 2259 
Q 2675 3391 2411 3762 
Q 2147 4134 1753 4134 
Q 1366 4134 1134 3806 
Q 844 3388 844 2259 
z
" transform="scale(0.015625)"/>
       </defs>
       <use xlink:href="#ArialMT-30"/>
      </g>
     </g>
    </g>
    <g id="xtick_2">
     <g id="line2d_2">
      <g>
       <use xlink:href="#m26e465e268" x="229.781623" y="369.16" style="stroke: #000000; stroke-width: 0.8"/>
      </g>
     </g>
     <g id="text_2">
      <!-- 5 -->
      <g transform="translate(224.220685 390.475625) scale(0.2 -0.2)">
       <defs>
        <path id="ArialMT-35" d="M 266 1200 
L 856 1250 
Q 922 819 1161 601 
Q 1400 384 1738 384 
Q 2144 384 2425 690 
Q 2706 997 2706 1503 
Q 2706 1984 2436 2262 
Q 2166 2541 1728 2541 
Q 1456 2541 1237 2417 
Q 1019 2294 894 2097 
L 366 2166 
L 809 4519 
L 3088 4519 
L 3088 3981 
L 1259 3981 
L 1013 2750 
Q 1425 3038 1878 3038 
Q 2478 3038 2890 2622 
Q 3303 2206 3303 1553 
Q 3303 931 2941 478 
Q 2500 -78 1738 -78 
Q 1113 -78 717 272 
Q 322 622 266 1200 
z
" transform="scale(0.015625)"/>
       </defs>
       <use xlink:href="#ArialMT-35"/>
      </g>
     </g>
    </g>
    <g id="xtick_3">
     <g id="line2d_3">
      <g>
       <use xlink:href="#m26e465e268" x="342.383601" y="369.16" style="stroke: #000000; stroke-width: 0.8"/>
      </g>
     </g>
     <g id="text_3">
      <!-- 10 -->
      <g transform="translate(331.261726 390.475625) scale(0.2 -0.2)">
       <defs>
        <path id="ArialMT-31" d="M 2384 0 
L 1822 0 
L 1822 3584 
Q 1619 3391 1289 3197 
Q 959 3003 697 2906 
L 697 3450 
Q 1169 3672 1522 3987 
Q 1875 4303 2022 4600 
L 2384 4600 
L 2384 0 
z
" transform="scale(0.015625)"/>
       </defs>
       <use xlink:href="#ArialMT-31"/>
       <use xlink:href="#ArialMT-30" transform="translate(55.615234 0)"/>
      </g>
     </g>
    </g>
    <g id="xtick_4">
     <g id="line2d_4">
      <g>
       <use xlink:href="#m26e465e268" x="454.985579" y="369.16" style="stroke: #000000; stroke-width: 0.8"/>
      </g>
     </g>
     <g id="text_4">
      <!-- 15 -->
      <g transform="translate(443.863704 390.475625) scale(0.2 -0.2)">
       <use xlink:href="#ArialMT-31"/>
       <use xlink:href="#ArialMT-35" transform="translate(55.615234 0)"/>
      </g>
     </g>
    </g>
    <g id="xtick_5">
     <g id="line2d_5">
      <g>
       <use xlink:href="#m26e465e268" x="567.587557" y="369.16" style="stroke: #000000; stroke-width: 0.8"/>
      </g>
     </g>
     <g id="text_5">
      <!-- 20 -->
      <g transform="translate(556.465682 390.475625) scale(0.2 -0.2)">
       <defs>
        <path id="ArialMT-32" d="M 3222 541 
L 3222 0 
L 194 0 
Q 188 203 259 391 
Q 375 700 629 1000 
Q 884 1300 1366 1694 
Q 2113 2306 2375 2664 
Q 2638 3022 2638 3341 
Q 2638 3675 2398 3904 
Q 2159 4134 1775 4134 
Q 1369 4134 1125 3890 
Q 881 3647 878 3216 
L 300 3275 
Q 359 3922 746 4261 
Q 1134 4600 1788 4600 
Q 2447 4600 2831 4234 
Q 3216 3869 3216 3328 
Q 3216 3053 3103 2787 
Q 2991 2522 2730 2228 
Q 2469 1934 1863 1422 
Q 1356 997 1212 845 
Q 1069 694 975 541 
L 3222 541 
z
" transform="scale(0.015625)"/>
       </defs>
       <use xlink:href="#ArialMT-32"/>
       <use xlink:href="#ArialMT-30" transform="translate(55.615234 0)"/>
      </g>
     </g>
    </g>
    <g id="xtick_6">
     <g id="line2d_6">
      <g>
       <use xlink:href="#m26e465e268" x="680.189535" y="369.16" style="stroke: #000000; stroke-width: 0.8"/>
      </g>
     </g>
     <g id="text_6">
      <!-- 25 -->
      <g transform="translate(669.06766 390.475625) scale(0.2 -0.2)">
       <use xlink:href="#ArialMT-32"/>
       <use xlink:href="#ArialMT-35" transform="translate(55.615234 0)"/>
      </g>
     </g>
    </g>
    <g id="text_7">
     <!-- Minima Free Energy (kJ/mol) -->
     <g transform="translate(242.123125 415.921875) scale(0.24 -0.24)">
      <defs>
       <path id="ArialMT-4d" d="M 475 0 
L 475 4581 
L 1388 4581 
L 2472 1338 
Q 2622 884 2691 659 
Q 2769 909 2934 1394 
L 4031 4581 
L 4847 4581 
L 4847 0 
L 4263 0 
L 4263 3834 
L 2931 0 
L 2384 0 
L 1059 3900 
L 1059 0 
L 475 0 
z
" transform="scale(0.015625)"/>
       <path id="ArialMT-69" d="M 425 3934 
L 425 4581 
L 988 4581 
L 988 3934 
L 425 3934 
z
M 425 0 
L 425 3319 
L 988 3319 
L 988 0 
L 425 0 
z
" transform="scale(0.015625)"/>
       <path id="ArialMT-6e" d="M 422 0 
L 422 3319 
L 928 3319 
L 928 2847 
Q 1294 3394 1984 3394 
Q 2284 3394 2536 3286 
Q 2788 3178 2913 3003 
Q 3038 2828 3088 2588 
Q 3119 2431 3119 2041 
L 3119 0 
L 2556 0 
L 2556 2019 
Q 2556 2363 2490 2533 
Q 2425 2703 2258 2804 
Q 2091 2906 1866 2906 
Q 1506 2906 1245 2678 
Q 984 2450 984 1813 
L 984 0 
L 422 0 
z
" transform="scale(0.015625)"/>
       <path id="ArialMT-6d" d="M 422 0 
L 422 3319 
L 925 3319 
L 925 2853 
Q 1081 3097 1340 3245 
Q 1600 3394 1931 3394 
Q 2300 3394 2536 3241 
Q 2772 3088 2869 2813 
Q 3263 3394 3894 3394 
Q 4388 3394 4653 3120 
Q 4919 2847 4919 2278 
L 4919 0 
L 4359 0 
L 4359 2091 
Q 4359 2428 4304 2576 
Q 4250 2725 4106 2815 
Q 3963 2906 3769 2906 
Q 3419 2906 3187 2673 
Q 2956 2441 2956 1928 
L 2956 0 
L 2394 0 
L 2394 2156 
Q 2394 2531 2256 2718 
Q 2119 2906 1806 2906 
Q 1569 2906 1367 2781 
Q 1166 2656 1075 2415 
Q 984 2175 984 1722 
L 984 0 
L 422 0 
z
" transform="scale(0.015625)"/>
       <path id="ArialMT-61" d="M 2588 409 
Q 2275 144 1986 34 
Q 1697 -75 1366 -75 
Q 819 -75 525 192 
Q 231 459 231 875 
Q 231 1119 342 1320 
Q 453 1522 633 1644 
Q 813 1766 1038 1828 
Q 1203 1872 1538 1913 
Q 2219 1994 2541 2106 
Q 2544 2222 2544 2253 
Q 2544 2597 2384 2738 
Q 2169 2928 1744 2928 
Q 1347 2928 1158 2789 
Q 969 2650 878 2297 
L 328 2372 
Q 403 2725 575 2942 
Q 747 3159 1072 3276 
Q 1397 3394 1825 3394 
Q 2250 3394 2515 3294 
Q 2781 3194 2906 3042 
Q 3031 2891 3081 2659 
Q 3109 2516 3109 2141 
L 3109 1391 
Q 3109 606 3145 398 
Q 3181 191 3288 0 
L 2700 0 
Q 2613 175 2588 409 
z
M 2541 1666 
Q 2234 1541 1622 1453 
Q 1275 1403 1131 1340 
Q 988 1278 909 1158 
Q 831 1038 831 891 
Q 831 666 1001 516 
Q 1172 366 1500 366 
Q 1825 366 2078 508 
Q 2331 650 2450 897 
Q 2541 1088 2541 1459 
L 2541 1666 
z
" transform="scale(0.015625)"/>
       <path id="ArialMT-20" transform="scale(0.015625)"/>
       <path id="ArialMT-46" d="M 525 0 
L 525 4581 
L 3616 4581 
L 3616 4041 
L 1131 4041 
L 1131 2622 
L 3281 2622 
L 3281 2081 
L 1131 2081 
L 1131 0 
L 525 0 
z
" transform="scale(0.015625)"/>
       <path id="ArialMT-72" d="M 416 0 
L 416 3319 
L 922 3319 
L 922 2816 
Q 1116 3169 1280 3281 
Q 1444 3394 1641 3394 
Q 1925 3394 2219 3213 
L 2025 2691 
Q 1819 2813 1613 2813 
Q 1428 2813 1281 2702 
Q 1134 2591 1072 2394 
Q 978 2094 978 1738 
L 978 0 
L 416 0 
z
" transform="scale(0.015625)"/>
       <path id="ArialMT-65" d="M 2694 1069 
L 3275 997 
Q 3138 488 2766 206 
Q 2394 -75 1816 -75 
Q 1088 -75 661 373 
Q 234 822 234 1631 
Q 234 2469 665 2931 
Q 1097 3394 1784 3394 
Q 2450 3394 2872 2941 
Q 3294 2488 3294 1666 
Q 3294 1616 3291 1516 
L 816 1516 
Q 847 969 1125 678 
Q 1403 388 1819 388 
Q 2128 388 2347 550 
Q 2566 713 2694 1069 
z
M 847 1978 
L 2700 1978 
Q 2663 2397 2488 2606 
Q 2219 2931 1791 2931 
Q 1403 2931 1139 2672 
Q 875 2413 847 1978 
z
" transform="scale(0.015625)"/>
       <path id="ArialMT-45" d="M 506 0 
L 506 4581 
L 3819 4581 
L 3819 4041 
L 1113 4041 
L 1113 2638 
L 3647 2638 
L 3647 2100 
L 1113 2100 
L 1113 541 
L 3925 541 
L 3925 0 
L 506 0 
z
" transform="scale(0.015625)"/>
       <path id="ArialMT-67" d="M 319 -275 
L 866 -356 
Q 900 -609 1056 -725 
Q 1266 -881 1628 -881 
Q 2019 -881 2231 -725 
Q 2444 -569 2519 -288 
Q 2563 -116 2559 434 
Q 2191 0 1641 0 
Q 956 0 581 494 
Q 206 988 206 1678 
Q 206 2153 378 2554 
Q 550 2956 876 3175 
Q 1203 3394 1644 3394 
Q 2231 3394 2613 2919 
L 2613 3319 
L 3131 3319 
L 3131 450 
Q 3131 -325 2973 -648 
Q 2816 -972 2473 -1159 
Q 2131 -1347 1631 -1347 
Q 1038 -1347 672 -1080 
Q 306 -813 319 -275 
z
M 784 1719 
Q 784 1066 1043 766 
Q 1303 466 1694 466 
Q 2081 466 2343 764 
Q 2606 1063 2606 1700 
Q 2606 2309 2336 2618 
Q 2066 2928 1684 2928 
Q 1309 2928 1046 2623 
Q 784 2319 784 1719 
z
" transform="scale(0.015625)"/>
       <path id="ArialMT-79" d="M 397 -1278 
L 334 -750 
Q 519 -800 656 -800 
Q 844 -800 956 -737 
Q 1069 -675 1141 -563 
Q 1194 -478 1313 -144 
Q 1328 -97 1363 -6 
L 103 3319 
L 709 3319 
L 1400 1397 
Q 1534 1031 1641 628 
Q 1738 1016 1872 1384 
L 2581 3319 
L 3144 3319 
L 1881 -56 
Q 1678 -603 1566 -809 
Q 1416 -1088 1222 -1217 
Q 1028 -1347 759 -1347 
Q 597 -1347 397 -1278 
z
" transform="scale(0.015625)"/>
       <path id="ArialMT-28" d="M 1497 -1347 
Q 1031 -759 709 28 
Q 388 816 388 1659 
Q 388 2403 628 3084 
Q 909 3875 1497 4659 
L 1900 4659 
Q 1522 4009 1400 3731 
Q 1209 3300 1100 2831 
Q 966 2247 966 1656 
Q 966 153 1900 -1347 
L 1497 -1347 
z
" transform="scale(0.015625)"/>
       <path id="ArialMT-6b" d="M 425 0 
L 425 4581 
L 988 4581 
L 988 1969 
L 2319 3319 
L 3047 3319 
L 1778 2088 
L 3175 0 
L 2481 0 
L 1384 1697 
L 988 1316 
L 988 0 
L 425 0 
z
" transform="scale(0.015625)"/>
       <path id="ArialMT-4a" d="M 184 1300 
L 731 1375 
Q 753 850 928 656 
Q 1103 463 1413 463 
Q 1641 463 1806 567 
Q 1972 672 2034 851 
Q 2097 1031 2097 1425 
L 2097 4581 
L 2703 4581 
L 2703 1459 
Q 2703 884 2564 568 
Q 2425 253 2123 87 
Q 1822 -78 1416 -78 
Q 813 -78 492 269 
Q 172 616 184 1300 
z
" transform="scale(0.015625)"/>
       <path id="ArialMT-2f" d="M 0 -78 
L 1328 4659 
L 1778 4659 
L 453 -78 
L 0 -78 
z
" transform="scale(0.015625)"/>
       <path id="ArialMT-6f" d="M 213 1659 
Q 213 2581 725 3025 
Q 1153 3394 1769 3394 
Q 2453 3394 2887 2945 
Q 3322 2497 3322 1706 
Q 3322 1066 3130 698 
Q 2938 331 2570 128 
Q 2203 -75 1769 -75 
Q 1072 -75 642 372 
Q 213 819 213 1659 
z
M 791 1659 
Q 791 1022 1069 705 
Q 1347 388 1769 388 
Q 2188 388 2466 706 
Q 2744 1025 2744 1678 
Q 2744 2294 2464 2611 
Q 2184 2928 1769 2928 
Q 1347 2928 1069 2612 
Q 791 2297 791 1659 
z
" transform="scale(0.015625)"/>
       <path id="ArialMT-6c" d="M 409 0 
L 409 4581 
L 972 4581 
L 972 0 
L 409 0 
z
" transform="scale(0.015625)"/>
       <path id="ArialMT-29" d="M 791 -1347 
L 388 -1347 
Q 1322 153 1322 1656 
Q 1322 2244 1188 2822 
Q 1081 3291 891 3722 
Q 769 4003 388 4659 
L 791 4659 
Q 1378 3875 1659 3084 
Q 1900 2403 1900 1659 
Q 1900 816 1576 28 
Q 1253 -759 791 -1347 
z
" transform="scale(0.015625)"/>
      </defs>
      <use xlink:href="#ArialMT-4d"/>
      <use xlink:href="#ArialMT-69" transform="translate(83.300781 0)"/>
      <use xlink:href="#ArialMT-6e" transform="translate(105.517578 0)"/>
      <use xlink:href="#ArialMT-69" transform="translate(161.132812 0)"/>
      <use xlink:href="#ArialMT-6d" transform="translate(183.349609 0)"/>
      <use xlink:href="#ArialMT-61" transform="translate(266.650391 0)"/>
      <use xlink:href="#ArialMT-20" transform="translate(322.265625 0)"/>
      <use xlink:href="#ArialMT-46" transform="translate(350.048828 0)"/>
      <use xlink:href="#ArialMT-72" transform="translate(411.132812 0)"/>
      <use xlink:href="#ArialMT-65" transform="translate(444.433594 0)"/>
      <use xlink:href="#ArialMT-65" transform="translate(500.048828 0)"/>
      <use xlink:href="#ArialMT-20" transform="translate(555.664062 0)"/>
      <use xlink:href="#ArialMT-45" transform="translate(583.447266 0)"/>
      <use xlink:href="#ArialMT-6e" transform="translate(650.146484 0)"/>
      <use xlink:href="#ArialMT-65" transform="translate(705.761719 0)"/>
      <use xlink:href="#ArialMT-72" transform="translate(761.376953 0)"/>
      <use xlink:href="#ArialMT-67" transform="translate(794.677734 0)"/>
      <use xlink:href="#ArialMT-79" transform="translate(850.292969 0)"/>
      <use xlink:href="#ArialMT-20" transform="translate(900.292969 0)"/>
      <use xlink:href="#ArialMT-28" transform="translate(928.076172 0)"/>
      <use xlink:href="#ArialMT-6b" transform="translate(961.376953 0)"/>
      <use xlink:href="#ArialMT-4a" transform="translate(1011.376953 0)"/>
      <use xlink:href="#ArialMT-2f" transform="translate(1061.376953 0)"/>
      <use xlink:href="#ArialMT-6d" transform="translate(1089.160156 0)"/>
      <use xlink:href="#ArialMT-6f" transform="translate(1172.460938 0)"/>
      <use xlink:href="#ArialMT-6c" transform="translate(1228.076172 0)"/>
      <use xlink:href="#ArialMT-29" transform="translate(1250.292969 0)"/>
     </g>
    </g>
   </g>
   <g id="matplotlib.axis_2">
    <g id="ytick_1">
     <g id="line2d_7">
      <defs>
       <path id="m7683164da3" d="M 0 0 
L -3.5 0 
" style="stroke: #000000; stroke-width: 0.8"/>
      </defs>
      <g>
       <use xlink:href="#m7683164da3" x="83.09" y="369.16" style="stroke: #000000; stroke-width: 0.8"/>
      </g>
     </g>
     <g id="text_8">
      <!-- 0.00 -->
      <g transform="translate(37.168125 376.317812) scale(0.2 -0.2)">
       <defs>
        <path id="ArialMT-2e" d="M 581 0 
L 581 641 
L 1222 641 
L 1222 0 
L 581 0 
z
" transform="scale(0.015625)"/>
       </defs>
       <use xlink:href="#ArialMT-30"/>
       <use xlink:href="#ArialMT-2e" transform="translate(55.615234 0)"/>
       <use xlink:href="#ArialMT-30" transform="translate(83.398438 0)"/>
       <use xlink:href="#ArialMT-30" transform="translate(139.013672 0)"/>
      </g>
     </g>
    </g>
    <g id="ytick_2">
     <g id="line2d_8">
      <g>
       <use xlink:href="#m7683164da3" x="83.09" y="283.83619" style="stroke: #000000; stroke-width: 0.8"/>
      </g>
     </g>
     <g id="text_9">
      <!-- 0.05 -->
      <g transform="translate(37.168125 290.994003) scale(0.2 -0.2)">
       <use xlink:href="#ArialMT-30"/>
       <use xlink:href="#ArialMT-2e" transform="translate(55.615234 0)"/>
       <use xlink:href="#ArialMT-30" transform="translate(83.398438 0)"/>
       <use xlink:href="#ArialMT-35" transform="translate(139.013672 0)"/>
      </g>
     </g>
    </g>
    <g id="ytick_3">
     <g id="line2d_9">
      <g>
       <use xlink:href="#m7683164da3" x="83.09" y="198.512381" style="stroke: #000000; stroke-width: 0.8"/>
      </g>
     </g>
     <g id="text_10">
      <!-- 0.10 -->
      <g transform="translate(37.168125 205.670193) scale(0.2 -0.2)">
       <use xlink:href="#ArialMT-30"/>
       <use xlink:href="#ArialMT-2e" transform="translate(55.615234 0)"/>
       <use xlink:href="#ArialMT-31" transform="translate(83.398438 0)"/>
       <use xlink:href="#ArialMT-30" transform="translate(139.013672 0)"/>
      </g>
     </g>
    </g>
    <g id="ytick_4">
     <g id="line2d_10">
      <g>
       <use xlink:href="#m7683164da3" x="83.09" y="113.188571" style="stroke: #000000; stroke-width: 0.8"/>
      </g>
     </g>
     <g id="text_11">
      <!-- 0.15 -->
      <g transform="translate(37.168125 120.346384) scale(0.2 -0.2)">
       <use xlink:href="#ArialMT-30"/>
       <use xlink:href="#ArialMT-2e" transform="translate(55.615234 0)"/>
       <use xlink:href="#ArialMT-31" transform="translate(83.398438 0)"/>
       <use xlink:href="#ArialMT-35" transform="translate(139.013672 0)"/>
      </g>
     </g>
    </g>
    <g id="ytick_5">
     <g id="line2d_11">
      <g>
       <use xlink:href="#m7683164da3" x="83.09" y="27.864762" style="stroke: #000000; stroke-width: 0.8"/>
      </g>
     </g>
     <g id="text_12">
      <!-- 0.20 -->
      <g transform="translate(37.168125 35.022574) scale(0.2 -0.2)">
       <use xlink:href="#ArialMT-30"/>
       <use xlink:href="#ArialMT-2e" transform="translate(55.615234 0)"/>
       <use xlink:href="#ArialMT-32" transform="translate(83.398438 0)"/>
       <use xlink:href="#ArialMT-30" transform="translate(139.013672 0)"/>
      </g>
     </g>
    </g>
    <g id="text_13">
     <!-- Normalized Count -->
     <g transform="translate(28.398125 286.015625) rotate(-90) scale(0.24 -0.24)">
      <defs>
       <path id="ArialMT-4e" d="M 488 0 
L 488 4581 
L 1109 4581 
L 3516 984 
L 3516 4581 
L 4097 4581 
L 4097 0 
L 3475 0 
L 1069 3600 
L 1069 0 
L 488 0 
z
" transform="scale(0.015625)"/>
       <path id="ArialMT-7a" d="M 125 0 
L 125 456 
L 2238 2881 
Q 1878 2863 1603 2863 
L 250 2863 
L 250 3319 
L 2963 3319 
L 2963 2947 
L 1166 841 
L 819 456 
Q 1197 484 1528 484 
L 3063 484 
L 3063 0 
L 125 0 
z
" transform="scale(0.015625)"/>
       <path id="ArialMT-64" d="M 2575 0 
L 2575 419 
Q 2259 -75 1647 -75 
Q 1250 -75 917 144 
Q 584 363 401 755 
Q 219 1147 219 1656 
Q 219 2153 384 2558 
Q 550 2963 881 3178 
Q 1213 3394 1622 3394 
Q 1922 3394 2156 3267 
Q 2391 3141 2538 2938 
L 2538 4581 
L 3097 4581 
L 3097 0 
L 2575 0 
z
M 797 1656 
Q 797 1019 1065 703 
Q 1334 388 1700 388 
Q 2069 388 2326 689 
Q 2584 991 2584 1609 
Q 2584 2291 2321 2609 
Q 2059 2928 1675 2928 
Q 1300 2928 1048 2622 
Q 797 2316 797 1656 
z
" transform="scale(0.015625)"/>
       <path id="ArialMT-43" d="M 3763 1606 
L 4369 1453 
Q 4178 706 3683 314 
Q 3188 -78 2472 -78 
Q 1731 -78 1267 223 
Q 803 525 561 1097 
Q 319 1669 319 2325 
Q 319 3041 592 3573 
Q 866 4106 1370 4382 
Q 1875 4659 2481 4659 
Q 3169 4659 3637 4309 
Q 4106 3959 4291 3325 
L 3694 3184 
Q 3534 3684 3231 3912 
Q 2928 4141 2469 4141 
Q 1941 4141 1586 3887 
Q 1231 3634 1087 3207 
Q 944 2781 944 2328 
Q 944 1744 1114 1308 
Q 1284 872 1643 656 
Q 2003 441 2422 441 
Q 2931 441 3284 734 
Q 3638 1028 3763 1606 
z
" transform="scale(0.015625)"/>
       <path id="ArialMT-75" d="M 2597 0 
L 2597 488 
Q 2209 -75 1544 -75 
Q 1250 -75 995 37 
Q 741 150 617 320 
Q 494 491 444 738 
Q 409 903 409 1263 
L 409 3319 
L 972 3319 
L 972 1478 
Q 972 1038 1006 884 
Q 1059 663 1231 536 
Q 1403 409 1656 409 
Q 1909 409 2131 539 
Q 2353 669 2445 892 
Q 2538 1116 2538 1541 
L 2538 3319 
L 3100 3319 
L 3100 0 
L 2597 0 
z
" transform="scale(0.015625)"/>
       <path id="ArialMT-74" d="M 1650 503 
L 1731 6 
Q 1494 -44 1306 -44 
Q 1000 -44 831 53 
Q 663 150 594 308 
Q 525 466 525 972 
L 525 2881 
L 113 2881 
L 113 3319 
L 525 3319 
L 525 4141 
L 1084 4478 
L 1084 3319 
L 1650 3319 
L 1650 2881 
L 1084 2881 
L 1084 941 
Q 1084 700 1114 631 
Q 1144 563 1211 522 
Q 1278 481 1403 481 
Q 1497 481 1650 503 
z
" transform="scale(0.015625)"/>
      </defs>
      <use xlink:href="#ArialMT-4e"/>
      <use xlink:href="#ArialMT-6f" transform="translate(72.216797 0)"/>
      <use xlink:href="#ArialMT-72" transform="translate(127.832031 0)"/>
      <use xlink:href="#ArialMT-6d" transform="translate(161.132812 0)"/>
      <use xlink:href="#ArialMT-61" transform="translate(244.433594 0)"/>
      <use xlink:href="#ArialMT-6c" transform="translate(300.048828 0)"/>
      <use xlink:href="#ArialMT-69" transform="translate(322.265625 0)"/>
      <use xlink:href="#ArialMT-7a" transform="translate(344.482422 0)"/>
      <use xlink:href="#ArialMT-65" transform="translate(394.482422 0)"/>
      <use xlink:href="#ArialMT-64" transform="translate(450.097656 0)"/>
      <use xlink:href="#ArialMT-20" transform="translate(505.712891 0)"/>
      <use xlink:href="#ArialMT-43" transform="translate(533.496094 0)"/>
      <use xlink:href="#ArialMT-6f" transform="translate(605.712891 0)"/>
      <use xlink:href="#ArialMT-75" transform="translate(661.328125 0)"/>
      <use xlink:href="#ArialMT-6e" transform="translate(716.943359 0)"/>
      <use xlink:href="#ArialMT-74" transform="translate(772.558594 0)"/>
     </g>
    </g>
   </g>
   <g id="patch_27">
    <path d="M 83.09 369.16 
L 83.09 10.8 
" style="fill: none; stroke: #000000; stroke-width: 0.8; stroke-linejoin: miter; stroke-linecap: square"/>
   </g>
   <g id="patch_28">
    <path d="M 709.2 369.16 
L 709.2 10.8 
" style="fill: none; stroke: #000000; stroke-width: 0.8; stroke-linejoin: miter; stroke-linecap: square"/>
   </g>
   <g id="patch_29">
    <path d="M 83.09 369.16 
L 709.2 369.16 
" style="fill: none; stroke: #000000; stroke-width: 0.8; stroke-linejoin: miter; stroke-linecap: square"/>
   </g>
   <g id="patch_30">
    <path d="M 83.09 10.8 
L 709.2 10.8 
" style="fill: none; stroke: #000000; stroke-width: 0.8; stroke-linejoin: miter; stroke-linecap: square"/>
   </g>
   <g id="text_14">
    <!-- Difference: -15.29 kJ/mol -->
    <g transform="translate(396.145 118.308) scale(0.2 -0.2)">
     <defs>
      <path id="ArialMT-44" d="M 494 0 
L 494 4581 
L 2072 4581 
Q 2606 4581 2888 4516 
Q 3281 4425 3559 4188 
Q 3922 3881 4101 3404 
Q 4281 2928 4281 2316 
Q 4281 1794 4159 1391 
Q 4038 988 3847 723 
Q 3656 459 3429 307 
Q 3203 156 2883 78 
Q 2563 0 2147 0 
L 494 0 
z
M 1100 541 
L 2078 541 
Q 2531 541 2789 625 
Q 3047 709 3200 863 
Q 3416 1078 3536 1442 
Q 3656 1806 3656 2325 
Q 3656 3044 3420 3430 
Q 3184 3816 2847 3947 
Q 2603 4041 2063 4041 
L 1100 4041 
L 1100 541 
z
" transform="scale(0.015625)"/>
      <path id="ArialMT-66" d="M 556 0 
L 556 2881 
L 59 2881 
L 59 3319 
L 556 3319 
L 556 3672 
Q 556 4006 616 4169 
Q 697 4388 901 4523 
Q 1106 4659 1475 4659 
Q 1713 4659 2000 4603 
L 1916 4113 
Q 1741 4144 1584 4144 
Q 1328 4144 1222 4034 
Q 1116 3925 1116 3625 
L 1116 3319 
L 1763 3319 
L 1763 2881 
L 1116 2881 
L 1116 0 
L 556 0 
z
" transform="scale(0.015625)"/>
      <path id="ArialMT-63" d="M 2588 1216 
L 3141 1144 
Q 3050 572 2676 248 
Q 2303 -75 1759 -75 
Q 1078 -75 664 370 
Q 250 816 250 1647 
Q 250 2184 428 2587 
Q 606 2991 970 3192 
Q 1334 3394 1763 3394 
Q 2303 3394 2647 3120 
Q 2991 2847 3088 2344 
L 2541 2259 
Q 2463 2594 2264 2762 
Q 2066 2931 1784 2931 
Q 1359 2931 1093 2626 
Q 828 2322 828 1663 
Q 828 994 1084 691 
Q 1341 388 1753 388 
Q 2084 388 2306 591 
Q 2528 794 2588 1216 
z
" transform="scale(0.015625)"/>
      <path id="ArialMT-3a" d="M 578 2678 
L 578 3319 
L 1219 3319 
L 1219 2678 
L 578 2678 
z
M 578 0 
L 578 641 
L 1219 641 
L 1219 0 
L 578 0 
z
" transform="scale(0.015625)"/>
      <path id="ArialMT-2d" d="M 203 1375 
L 203 1941 
L 1931 1941 
L 1931 1375 
L 203 1375 
z
" transform="scale(0.015625)"/>
      <path id="ArialMT-39" d="M 350 1059 
L 891 1109 
Q 959 728 1153 556 
Q 1347 384 1650 384 
Q 1909 384 2104 503 
Q 2300 622 2425 820 
Q 2550 1019 2634 1356 
Q 2719 1694 2719 2044 
Q 2719 2081 2716 2156 
Q 2547 1888 2255 1720 
Q 1963 1553 1622 1553 
Q 1053 1553 659 1965 
Q 266 2378 266 3053 
Q 266 3750 677 4175 
Q 1088 4600 1706 4600 
Q 2153 4600 2523 4359 
Q 2894 4119 3086 3673 
Q 3278 3228 3278 2384 
Q 3278 1506 3087 986 
Q 2897 466 2520 194 
Q 2144 -78 1638 -78 
Q 1100 -78 759 220 
Q 419 519 350 1059 
z
M 2653 3081 
Q 2653 3566 2395 3850 
Q 2138 4134 1775 4134 
Q 1400 4134 1122 3828 
Q 844 3522 844 3034 
Q 844 2597 1108 2323 
Q 1372 2050 1759 2050 
Q 2150 2050 2401 2323 
Q 2653 2597 2653 3081 
z
" transform="scale(0.015625)"/>
     </defs>
     <use xlink:href="#ArialMT-44"/>
     <use xlink:href="#ArialMT-69" transform="translate(72.216797 0)"/>
     <use xlink:href="#ArialMT-66" transform="translate(94.433594 0)"/>
     <use xlink:href="#ArialMT-66" transform="translate(120.466797 0)"/>
     <use xlink:href="#ArialMT-65" transform="translate(148.25 0)"/>
     <use xlink:href="#ArialMT-72" transform="translate(203.865234 0)"/>
     <use xlink:href="#ArialMT-65" transform="translate(237.166016 0)"/>
     <use xlink:href="#ArialMT-6e" transform="translate(292.78125 0)"/>
     <use xlink:href="#ArialMT-63" transform="translate(348.396484 0)"/>
     <use xlink:href="#ArialMT-65" transform="translate(398.396484 0)"/>
     <use xlink:href="#ArialMT-3a" transform="translate(454.011719 0)"/>
     <use xlink:href="#ArialMT-20" transform="translate(481.794922 0)"/>
     <use xlink:href="#ArialMT-2d" transform="translate(509.578125 0)"/>
     <use xlink:href="#ArialMT-31" transform="translate(542.878906 0)"/>
     <use xlink:href="#ArialMT-35" transform="translate(598.494141 0)"/>
     <use xlink:href="#ArialMT-2e" transform="translate(654.109375 0)"/>
     <use xlink:href="#ArialMT-32" transform="translate(681.892578 0)"/>
     <use xlink:href="#ArialMT-39" transform="translate(737.507812 0)"/>
     <use xlink:href="#ArialMT-20" transform="translate(793.123047 0)"/>
     <use xlink:href="#ArialMT-6b" transform="translate(820.90625 0)"/>
     <use xlink:href="#ArialMT-4a" transform="translate(870.90625 0)"/>
     <use xlink:href="#ArialMT-2f" transform="translate(920.90625 0)"/>
     <use xlink:href="#ArialMT-6d" transform="translate(948.689453 0)"/>
     <use xlink:href="#ArialMT-6f" transform="translate(1031.990234 0)"/>
     <use xlink:href="#ArialMT-6c" transform="translate(1087.605469 0)"/>
    </g>
   </g>
   <g id="legend_1">
    <g id="patch_31">
     <path d="M 476.544375 39.884063 
L 512.544375 39.884063 
L 512.544375 27.284063 
L 476.544375 27.284063 
z
" style="fill: #ff0000; opacity: 0.7"/>
    </g>
    <g id="text_15">
     <!-- Minima &lt; 10 kJ/mol -->
     <g transform="translate(526.944375 39.884063) scale(0.18 -0.18)">
      <defs>
       <path id="ArialMT-3c" d="M 350 2003 
L 350 2528 
L 3384 3809 
L 3384 3250 
L 978 2263 
L 3384 1266 
L 3384 706 
L 350 2003 
z
" transform="scale(0.015625)"/>
      </defs>
      <use xlink:href="#ArialMT-4d"/>
      <use xlink:href="#ArialMT-69" transform="translate(83.300781 0)"/>
      <use xlink:href="#ArialMT-6e" transform="translate(105.517578 0)"/>
      <use xlink:href="#ArialMT-69" transform="translate(161.132812 0)"/>
      <use xlink:href="#ArialMT-6d" transform="translate(183.349609 0)"/>
      <use xlink:href="#ArialMT-61" transform="translate(266.650391 0)"/>
      <use xlink:href="#ArialMT-20" transform="translate(322.265625 0)"/>
      <use xlink:href="#ArialMT-3c" transform="translate(350.048828 0)"/>
      <use xlink:href="#ArialMT-20" transform="translate(408.447266 0)"/>
      <use xlink:href="#ArialMT-31" transform="translate(436.230469 0)"/>
      <use xlink:href="#ArialMT-30" transform="translate(491.845703 0)"/>
      <use xlink:href="#ArialMT-20" transform="translate(547.460938 0)"/>
      <use xlink:href="#ArialMT-6b" transform="translate(575.244141 0)"/>
      <use xlink:href="#ArialMT-4a" transform="translate(625.244141 0)"/>
      <use xlink:href="#ArialMT-2f" transform="translate(675.244141 0)"/>
      <use xlink:href="#ArialMT-6d" transform="translate(703.027344 0)"/>
      <use xlink:href="#ArialMT-6f" transform="translate(786.328125 0)"/>
      <use xlink:href="#ArialMT-6c" transform="translate(841.943359 0)"/>
     </g>
    </g>
    <g id="patch_32">
     <path d="M 476.544375 65.345625 
L 512.544375 65.345625 
L 512.544375 52.745625 
L 476.544375 52.745625 
z
" style="fill: #008000; opacity: 0.7"/>
    </g>
    <g id="text_16">
     <!-- Minima &gt;= 10 kJ/mol -->
     <g transform="translate(526.944375 65.345625) scale(0.18 -0.18)">
      <defs>
       <path id="ArialMT-3e" d="M 3384 2003 
L 350 706 
L 350 1266 
L 2753 2263 
L 350 3250 
L 350 3809 
L 3384 2528 
L 3384 2003 
z
" transform="scale(0.015625)"/>
       <path id="ArialMT-3d" d="M 3381 2694 
L 356 2694 
L 356 3219 
L 3381 3219 
L 3381 2694 
z
M 3381 1303 
L 356 1303 
L 356 1828 
L 3381 1828 
L 3381 1303 
z
" transform="scale(0.015625)"/>
      </defs>
      <use xlink:href="#ArialMT-4d"/>
      <use xlink:href="#ArialMT-69" transform="translate(83.300781 0)"/>
      <use xlink:href="#ArialMT-6e" transform="translate(105.517578 0)"/>
      <use xlink:href="#ArialMT-69" transform="translate(161.132812 0)"/>
      <use xlink:href="#ArialMT-6d" transform="translate(183.349609 0)"/>
      <use xlink:href="#ArialMT-61" transform="translate(266.650391 0)"/>
      <use xlink:href="#ArialMT-20" transform="translate(322.265625 0)"/>
      <use xlink:href="#ArialMT-3e" transform="translate(350.048828 0)"/>
      <use xlink:href="#ArialMT-3d" transform="translate(408.447266 0)"/>
      <use xlink:href="#ArialMT-20" transform="translate(466.845703 0)"/>
      <use xlink:href="#ArialMT-31" transform="translate(494.628906 0)"/>
      <use xlink:href="#ArialMT-30" transform="translate(550.244141 0)"/>
      <use xlink:href="#ArialMT-20" transform="translate(605.859375 0)"/>
      <use xlink:href="#ArialMT-6b" transform="translate(633.642578 0)"/>
      <use xlink:href="#ArialMT-4a" transform="translate(683.642578 0)"/>
      <use xlink:href="#ArialMT-2f" transform="translate(733.642578 0)"/>
      <use xlink:href="#ArialMT-6d" transform="translate(761.425781 0)"/>
      <use xlink:href="#ArialMT-6f" transform="translate(844.726562 0)"/>
      <use xlink:href="#ArialMT-6c" transform="translate(900.341797 0)"/>
     </g>
    </g>
   </g>
  </g>
 </g>
 <defs>
  <clipPath id="pe17aa71fbd">
   <rect x="83.09" y="10.8" width="626.11" height="358.36"/>
  </clipPath>
 </defs>
</svg>
